............................................................................
Downloaded from atomictorrents.net

Enjoy being with us!

You Can Find our Torrents only and only at: http://atomictorrents.net
............................................................................







                    _..._                          _..._     
                 .-'_..._''.                    .-'_..._''.  
         .--.  .' .'      '.\                 .' .'      '.\ 
         |__| / .'                           / .'            
     .|  .--.. '               .|           . '              
   .' |_ |  || |             .' |_     __   | |              
 .'     ||  || |           .'     | .:--.'. | |              
'--.  .-'|  |. '          '--.  .-'/ |   \ |. '              
   |  |  |  | \ '.          .|  |  `" __ | | \ '.          . 
   |  |  |__|  '. `._____.-'/|  |   .'.''| |  '. `._____.-'/ 
   |  '.'        `-.______ / |  '.'/ /   | |_   `-.______ /  
   |   /                  `  |   / \ \._,\ '/            `   
   `'-'                      `'-'   `--'  `"                 

_____ _____  ____   ____  ____  __  _  _____  ____ 
| ()_)| () )| ===| (_ (_`| ===||  \| ||_   _|(_ (_`
|_|   |_|\_\|____|.__)__)|____||_|\__|  |_| .__)__)



 
http://www.imdb.com/title/tt0369339/




 
http://www.allouttabubblegum.com/main/wp-content/uploads/2010/04/collateral_ver3.jpg

Collateral 2004 DVDRip TicTac






Overview
User Rating:
7.8/10   104,358 votes ╗
Your Rating:
Saving vote...
Deleting vote...
/10   (delete | history)
Sorry, there was a problem
MOVIEmeter: ?
Down 29% in popularity this week. See why on IMDbPro.
Director:
Michael Mann
Writer (WGA):
Stuart Beattie (written by)
Contact:
View company contact information for Collateral on IMDbPro.
Release Date:
6 August 2004 (USA) See more ╗
Genre:
Crime | Drama | Thriller See more ╗
Tagline:
It started like any other night
Plot:
A cab driver finds himself the hostage of an engaging contract killer as he makes his rounds from hit to hit during one night in LA. He must find a way to save both himself and one last victim. 



Cast
  (Cast overview, first billed only)

	Tom Cruise	... 	Vincent

	Jamie Foxx	... 	Max

	Jada Pinkett Smith	... 	Annie

	Mark Ruffalo	... 	Fanning

	Peter Berg	... 	Richard Weidner

	Bruce McGill	... 	Pedrosa

	Irma P. Hall	... 	Ida
	Barry Shabaka Henley	... 	Daniel

	Richard T. Jones	... 	Traffic Cop #1

	Klea Scott	... 	Fed #1

	Bodhi Elfman	... 	Young Professional Man

	Debi Mazar	... 	Young Professional Woman

	Javier Bardem	... 	Felix

	Emilio Rivera	... 	Paco

	Jamie McBride	... 	Traffic Cop #2



Additional Details
Also Known As:
See more ╗
MPAA:
Rated R for violence and language.
Parents Guide:
View content advisory for parents
Runtime:
120 min
Country:
USA
Language:
English | Spanish
Color:
Color
Aspect Ratio:
2.35 : 1 See more ╗
Sound Mix:
DTS | Dolby Digital | SDDS
Certification:
USA:R (certificate #40965) | Iceland:16 | Ireland:15 | Switzerland:16 (canton of Zurich) | Malaysia:18SG | Brazil:14 | India:A | Netherlands:12 (TV rating) | Canada:13+ (Quebec) | Canada:14 (Nova Scotia) | Canada:14A (Alberta/British Columbia/Manitoba/Ontario) | France:U (with warning) | Hungary:16 | Spain:18 | Argentina:13 | Australia:MA | Chile:14 | Czech Republic:15 | Denmark:15 | Finland:K-15 | Germany:16 | Hong Kong:IIB | Netherlands:16 | New Zealand:R13 | Norway:15 | Peru:14 | Philippines:R-13 | Portugal:M/16 | Singapore:NC-16 | South Korea:15 | Sweden:15 | Switzerland:14 (canton of Geneva) | Switzerland:14 (canton of Vaud) | UK:15
Filming Locations:
777 S. Figueroa Street, Downtown, Los Angeles, California, USASee more ╗
Company:
Paramount Pictures



General
Complete name                    : C:\aaaahulk\Collateral 2004 DVDRip TicTac\Collateral 2004 DVDRip TicTac.avi
Format                           : AVI
Format/Info                      : Audio Video Interleave
Format profile                   : OpenDML
File size                        : 1.14 GiB
Duration                         : 4h 51mn
Overall bit rate                 : 560 Kbps
Writing application              : Lavf52.13.0

Video
ID                               : 0
Format                           : MPEG-4 Visual
Format profile                   : Advanced Simple@L1
Format settings, BVOP            : Yes
Format settings, QPel            : No
Format settings, GMC             : No warppoints
Format settings, Matrix          : Default (H.263)
Codec ID                         : DX50
Codec ID/Hint                    : DivX 5
Duration                         : 4h 51mn
Bit rate                         : 478 Kbps
Width                            : 720 pixels
Height                           : 432 pixels
Display aspect ratio             : 16:9
Frame rate                       : 25.000 fps
Resolution                       : 8 bits
Colorimetry                      : 4:2:0
Scan type                        : Progressive
Bits/(Pixel*Frame)               : 0.061
Stream size                      : 995 MiB (85%)
Writing library                  : Lavc51.54.0

Audio
ID                               : 1
Format                           : MPEG Audio
Format version                   : Version 1
Format profile                   : Layer 3
Mode                             : Joint stereo
Format_Settings_ModeExtension    : MS Stereo
Codec ID                         : 55
Codec ID/Hint                    : MP3
Duration                         : 1h 55mn
Bit rate mode                    : Constant
Bit rate                         : 192 Kbps
Channel(s)                       : 2 channels
Sampling rate                    : 44.1 KHz
Stream size                      : 158 MiB (14%)
Alignment                        : Aligned on interleaves
Interleave, duration             : 26 ms (0.65 video frame)
Writing library                  : LAME3.98 (beta)





............................................................................
Downloaded from atomictorrents.net

Enjoy being with us!

You Can Find our Torrents only and only at: http://atomictorrents.net
............................................................................





